<?xml version="1.0" encoding="UTF-8"?>
<svg version="1.1" xmlns="http://www.w3.org/2000/svg" width="512" height="512">
<path d="M0 0 C2.5213873 0.11727383 5.04182403 0.24382866 7.5625 0.375 C8.59020508 0.42140625 8.59020508 0.42140625 9.63867188 0.46875 C15.77160984 0.79877357 21.80736859 1.61351993 27.8894043 2.45166016 C32.14096332 3.02949981 36.40016091 3.52293535 40.6640625 4 C41.39787643 4.08238922 42.13169037 4.16477844 42.88774109 4.24966431 C45.88812624 4.58538919 48.88876868 4.91872565 51.88964844 5.25 C56.92965907 5.80782219 61.96581428 6.39193441 67 7 C68.28567871 7.15122314 69.57135742 7.30244629 70.89599609 7.45825195 C72.06469238 7.61253662 73.23338867 7.76682129 74.4375 7.92578125 C75.45972656 8.05637939 76.48195313 8.18697754 77.53515625 8.3215332 C80 9 80 9 82.375 12.1875 C82.92794248 13.787815 83.46739563 15.3928018 84 17 C84.85847707 18.84361469 85.71857255 20.68663004 86.60424805 22.51733398 C89.04258385 27.56235949 91.33219626 32.62512972 93.19140625 37.9140625 C94.32600154 40.84098948 95.66963742 43.6571225 97 46.5 C98.62232149 49.96731456 100.21614254 53.39297189 101.5 57 C102.685884 60.32814097 104.12667607 63.49237209 105.625 66.69140625 C109.01793901 74.00092376 112.2852814 81.36248776 115.53173828 88.73803711 C116.49762213 90.93209854 117.46547658 93.12528261 118.43359375 95.31835938 C121.40556161 102.05806584 124.353232 108.80628133 127.2421875 115.58203125 C129.27990138 120.35387127 131.38984393 125.06782473 133.625 129.75 C135.92843828 134.62420624 138.08799969 139.52218856 140.04296875 144.546875 C142.62888893 151.17527449 145.39039885 157.72901882 148.375 164.1875 C150.51006337 168.82459075 152.45628751 173.52091316 154.375 178.25 C156.64852855 183.84437108 159.0384801 189.35567718 161.625 194.8125 C164.07760061 199.98679113 166.38287334 205.19428969 168.546875 210.49609375 C169.74099422 213.37546187 170.96278362 216.23809611 172.203125 219.09765625 C172.60096191 220.01659668 172.99879883 220.93553711 173.40869141 221.88232422 C174.19977772 223.70680871 174.99357846 225.53011947 175.79052734 227.35205078 C178.15666796 232.82163006 180.22068534 238.31189936 182 244 C181.34 244.33 180.68 244.66 180 245 C175.08079196 241.75690881 170.25141516 238.39706851 165.4375 235 C164.69564453 234.47921875 163.95378906 233.9584375 163.18945312 233.421875 C159.35928324 230.72063319 155.65934167 227.92982661 152 225 C150.82194542 224.15627429 149.63785538 223.32093875 148.44921875 222.4921875 C147.83369141 222.06292969 147.21816406 221.63367188 146.58398438 221.19140625 C145.30281535 220.3021087 144.01888016 219.41678501 142.73242188 218.53515625 C141.11974369 217.40542825 139.5550384 216.20783768 138 215 C138 214.34 138 213.68 138 213 C136.92105469 212.62101562 136.92105469 212.62101562 135.8203125 212.234375 C132.76217964 210.89591242 130.51213425 209.29512452 127.875 207.25 C126.82957031 206.45078125 125.78414062 205.6515625 124.70703125 204.828125 C124.1238916 204.38146484 123.54075195 203.93480469 122.93994141 203.47460938 C119.17498009 200.612746 115.36796907 197.80764078 111.5625 195 C110.75111572 194.39994141 109.93973145 193.79988281 109.10375977 193.18164062 C103.22818993 188.85444654 97.25854086 184.70179793 91.17578125 180.671875 C90.45777344 180.12015625 89.73976563 179.5684375 89 179 C89 178.34 89 177.68 89 177 C88.34 177.33 87.68 177.66 87 178 C87.54188965 178.84256348 87.54188965 178.84256348 88.09472656 179.70214844 C94.5958188 189.82545379 101.0447711 199.96685133 107.1875 210.3125 C111.20268646 217.06881703 115.34527428 223.71396492 119.64746094 230.29077148 C123.65885008 236.43525737 127.55628129 242.64761299 131.4375 248.875 C140.99558548 264.2068611 150.64806066 279.47667414 160.36938477 294.70556641 C160.92940186 295.58390137 161.48941895 296.46223633 162.06640625 297.3671875 C162.56084229 298.14175293 163.05527832 298.91631836 163.56469727 299.71435547 C165.07741629 302.12328139 166.53754147 304.56028895 168 307 C169.04640966 308.68111441 170.09742807 310.35936636 171.15234375 312.03515625 C177.69684294 322.45426377 184.19012021 332.89561375 190.49414062 343.4621582 C194.44163517 350.07872754 198.4308072 356.66911337 202.4375 363.25 C203.30677124 364.67904663 203.30677124 364.67904663 204.19360352 366.13696289 C204.74717529 367.04567139 205.30074707 367.95437988 205.87109375 368.890625 C206.39856201 369.75816406 206.92603027 370.62570312 207.46948242 371.51953125 C208.46463997 373.13235638 209.47702749 374.73471957 210.5090332 376.32421875 C210.9649585 377.02675781 211.42088379 377.72929687 211.890625 378.453125 C212.2918457 379.05801758 212.69306641 379.66291016 213.10644531 380.28613281 C214.45587128 382.87437606 214.35509857 385.15921145 214 388 C210.03023136 388.4663458 208.47188229 388.365155 205.25390625 385.875 C204.36574219 384.92625 203.47757812 383.9775 202.5625 383 C202.08514404 382.49815186 201.60778809 381.99630371 201.1159668 381.47924805 C197.87782332 378.04840355 194.75708623 374.51304447 191.703125 370.91796875 C189.12224134 368.0115149 186.31717121 365.34387087 183.50390625 362.6640625 C182 361 182 361 182 359 C181.43539062 358.77054687 180.87078125 358.54109375 180.2890625 358.3046875 C177.39155363 356.65320633 175.58578467 354.61675396 173.375 352.125 C172.59898437 351.26132812 171.82296875 350.39765625 171.0234375 349.5078125 C169 347 169 347 167.9765625 344.8046875 C166.71055452 342.46510476 165.37443596 342.10386492 163 341 C161.47265625 339.44921875 161.47265625 339.44921875 160.0625 337.6875 C156.97519774 333.94414601 153.63312519 330.56821017 150.1328125 327.20703125 C149.49085938 326.58183594 148.84890625 325.95664062 148.1875 325.3125 C147.58292969 324.73113281 146.97835937 324.14976562 146.35546875 323.55078125 C145 322 145 322 145 320 C144.01 319.67 143.02 319.34 142 319 C140.4921875 317.46875 140.4921875 317.46875 138.875 315.5 C134.33064627 310.13379506 129.39116257 305.14357769 124.234375 300.36328125 C123 299 123 299 123 297 C122.40703125 296.74476563 121.8140625 296.48953125 121.203125 296.2265625 C118.7732551 294.87376259 117.50763734 293.51658724 115.75 291.375 C112.54248663 287.56216415 109.11012802 284.09921113 105.50390625 280.6640625 C104 279 104 279 104 277 C103.34 277 102.68 277 102 277 C102 276.34 102 275.68 102 275 C101.4225 274.773125 100.845 274.54625 100.25 274.3125 C97.40408619 272.65238361 96.00158079 270.60812043 94 268 C93.2575 267.2575 92.515 266.515 91.75 265.75 C89.39743662 263.39743662 87.19752953 260.99493954 85 258.5 C81.10282502 254.09291427 77.15700674 249.94574949 72.625 246.1875 C69.31260042 243.39131853 66.55329316 240.30153012 63.75 237.00390625 C61.53800417 234.47097352 59.15849859 232.1452105 56.7578125 229.79296875 C54.87145944 227.86888863 53.12462201 225.8612998 51.375 223.8125 C48.79844131 220.81610027 46.10512574 218.45141505 43 216 C38 210.7107438 38 210.7107438 38 208 C37.01 207.67 36.02 207.34 35 207 C30.22727273 202.68181818 30.22727273 202.68181818 29 199 C28.34 199 27.68 199 27 199 C25.5546875 197.53125 25.5546875 197.53125 23.875 195.5 C20.62106119 191.6500766 17.15227282 188.13935665 13.50390625 184.6640625 C12 183 12 183 12 181 C11.34 181 10.68 181 10 181 C10 180.34 10 179.68 10 179 C9.34 179 8.68 179 8 179 C8 178.34 8 177.68 8 177 C7.11441406 176.62101562 7.11441406 176.62101562 6.2109375 176.234375 C3.74033299 174.8550269 2.42049443 173.42482424 0.625 171.25 C-1.62858859 168.57295092 -3.91287165 166.04816575 -6.4375 163.625 C-9 161 -9 161 -9 159 C-9.86625 158.6596875 -9.86625 158.6596875 -10.75 158.3125 C-13.58434736 156.6591307 -14.96762189 154.57036056 -17 152 C-18.44481709 150.81203928 -19.89059054 149.62506721 -21.3515625 148.45703125 C-23.95619842 146.15482936 -26.14446192 143.51665879 -28.38671875 140.8671875 C-29.95766162 138.98629915 -29.95766162 138.98629915 -31.70703125 137.3828125 C-33 136 -33 136 -33 134 C-33.639375 133.731875 -34.27875 133.46375 -34.9375 133.1875 C-37 132 -37 132 -38 129 C-38.66 129 -39.32 129 -40 129 C-40 128.34 -40 127.68 -40 127 C-40.66 127 -41.32 127 -42 127 C-42 126.34 -42 125.68 -42 125 C-43.485 124.505 -43.485 124.505 -45 124 C-45 123.34 -45 122.68 -45 122 C-45.66 122 -46.32 122 -47 122 C-48.7265625 120.3203125 -48.7265625 120.3203125 -50.625 118.125 C-51.57246094 117.04605469 -51.57246094 117.04605469 -52.5390625 115.9453125 C-54 114 -54 114 -54 112 C-54.928125 111.62875 -54.928125 111.62875 -55.875 111.25 C-58.38710296 109.77229238 -58.76107344 108.56044823 -60 106 C-60.99 105.67 -61.98 105.34 -63 105 C-63.33 104.01 -63.66 103.02 -64 102 C-61.52897934 98.31711514 -58.58788374 95.66886271 -55.125 92.9375 C-50.59547749 89.3065959 -46.14950371 85.59994504 -41.75 81.8125 C-41.1842627 81.32579834 -40.61852539 80.83909668 -40.03564453 80.33764648 C-39.48247559 79.86141846 -38.92930664 79.38519043 -38.359375 78.89453125 C-37.54049805 78.19191162 -37.54049805 78.19191162 -36.70507812 77.47509766 C-35.49287796 76.42639871 -34.28930795 75.36768776 -33.09179688 74.30224609 C-32.46853516 73.75262207 -31.84527344 73.20299805 -31.203125 72.63671875 C-30.63754883 72.13229248 -30.07197266 71.62786621 -29.48925781 71.1081543 C-28 70 -28 70 -26 70 C-25.505 68.515 -25.505 68.515 -25 67 C-22.7421875 64.703125 -22.7421875 64.703125 -19.875 62.25 C-18.94429687 61.43015625 -18.01359375 60.6103125 -17.0546875 59.765625 C-13.21364553 57.54548309 -11.224619 57.96754947 -7 59 C-7 59.66 -7 60.32 -7 61 C-6.319375 61.226875 -5.63875 61.45375 -4.9375 61.6875 C-1.3011291 63.31226146 2.02829263 65.32803257 5 68 C5 68.66 5 69.32 5 70 C6.051875 70.37125 6.051875 70.37125 7.125 70.75 C10.39514548 72.17180238 13.141122 73.87246288 16 76 C16 76.66 16 77.32 16 78 C17.98 78.495 17.98 78.495 20 79 C20 79.66 20 80.32 20 81 C20.57234375 81.10441406 21.1446875 81.20882812 21.734375 81.31640625 C24.36985768 82.11159499 26.06031308 83.27901491 28.25 84.9375 C28.95640625 85.46214844 29.6628125 85.98679687 30.390625 86.52734375 C31.18726563 87.25630859 31.18726563 87.25630859 32 88 C32 88.66 32 89.32 32 90 C32.598125 90.12375 33.19625 90.2475 33.8125 90.375 C36 91 36 91 39 93 C37.2770684 87.47878736 35.30068576 82.24747747 32.76953125 77.04296875 C32 75 32 75 32 71 C31.34 71 30.68 71 30 71 C29.649375 69.989375 29.29875 68.97875 28.9375 67.9375 C27.16036083 63.19011885 24.99711395 58.63718166 22.83203125 54.05883789 C20.30508625 48.69895065 17.91645366 43.28721028 15.56005859 37.85058594 C13.72265105 33.62217307 11.82456832 29.4283587 9.875 25.25 C7.46461403 20.07475953 5.23040351 14.84602462 3.078125 9.55859375 C2.05903592 7.03475177 2.05903592 7.03475177 0.859375 4.84765625 C0 3 0 3 0 0 Z " fill="#2B1C1F" transform="translate(205,26)"/>
<path d="M0 0 C3.80390997 3.70672979 7.31180317 7.57874756 10.75 11.625 C11.27658203 12.24181641 11.80316406 12.85863281 12.34570312 13.49414062 C16.18535752 18.0056179 19.94153964 22.58060358 23.67578125 27.1796875 C26.30260764 30.36719784 28.98915305 33.49807914 31.6875 36.625 C36.18153227 41.83427052 40.58081651 47.11293247 44.9375 52.4375 C50.03104129 58.66137531 55.23492439 64.77241865 60.52709961 70.82788086 C63.43169911 74.1606111 66.26409718 77.52574684 69 81 C72.84914512 85.88638844 76.91815452 90.56405143 81.00292969 95.25292969 C87.93658067 103.21319412 94.77707122 111.24648794 101.4375 119.4375 C104.9409395 123.73974886 108.51323661 127.97629236 112.125 132.1875 C112.63571045 132.78328857 113.1464209 133.37907715 113.67260742 133.99291992 C117.02520219 137.89296577 120.42266318 141.7486311 123.890625 145.546875 C125 147 125 147 125 149 C125.66 149 126.32 149 127 149 C128.48828125 150.66015625 128.48828125 150.66015625 130.3125 153.0625 C133.88576442 157.64927215 137.60915373 162.06177175 141.4375 166.4375 C146.05993726 171.73148261 150.57277267 177.08631274 154.98828125 182.5546875 C157.4953993 185.60217468 160.11863508 188.53302375 162.78515625 191.44140625 C164 193 164 193 164 195 C164.99 195.33 165.98 195.66 167 196 C168.9453125 198.1171875 168.9453125 198.1171875 171.125 200.875 C171.92292969 201.87273437 172.72085938 202.87046875 173.54296875 203.8984375 C174.35378906 204.92195312 175.16460937 205.94546875 176 207 C182.08448817 214.58171824 188.42491392 221.84094246 195 229 C196.38160715 230.51483356 197.75741481 232.03499557 199.125 233.5625 C199.68445313 234.18253906 200.24390625 234.80257812 200.8203125 235.44140625 C202 237 202 237 202 239 C202.66 239 203.32 239 204 239 C205.37491299 240.50787161 206.67364462 242.08539761 207.9375 243.6875 C208.74058594 244.69167969 209.54367188 245.69585937 210.37109375 246.73046875 C210.79890137 247.26591309 211.22670898 247.80135742 211.66748047 248.35302734 C213.89732495 251.10907918 216.20001944 253.80245713 218.5 256.5 C221.90574147 260.50207064 225.26025461 264.53650571 228.5625 268.625 C232.38958552 273.33211053 236.43419306 277.79688383 240.5390625 282.26171875 C243.68059196 285.75729359 246.62826717 289.38866594 249.58203125 293.04296875 C256.81777589 301.89185194 264.35658307 310.50231883 272 319 C271.67 319.66 271.34 320.32 271 321 C270.5875 320.58226318 270.175 320.16452637 269.75 319.73413086 C267.83611222 317.79914973 265.91808329 315.86832199 264 313.9375 C263.35160156 313.28072266 262.70320313 312.62394531 262.03515625 311.94726562 C258.84420827 308.74052087 255.62592701 305.63248936 252.1875 302.69140625 C246.32959709 297.64082419 240.9897855 292.04674369 235.56347656 286.54296875 C230.46801652 281.38142425 225.34665036 276.32656446 219.83203125 271.609375 C216.12642426 268.35412963 212.73519063 264.77480686 209.2890625 261.25 C206.36242767 258.28363709 203.3967685 255.44094332 200.23046875 252.73046875 C194.98386103 248.20212403 190.17587355 243.24461381 185.3125 238.3125 C183.47766292 236.45205459 181.64050281 234.59389673 179.80078125 232.73828125 C178.59675659 231.51685425 178.59675659 231.51685425 177.3684082 230.27075195 C175.01632476 228.01565165 172.56005769 226.01284569 170 224 C167.1875 221.375 167.1875 221.375 165 219 C165 218.34 165 217.68 165 217 C164.44151367 216.76821045 163.88302734 216.5364209 163.30761719 216.29760742 C160.39500672 214.65980329 158.41809206 212.62461285 156.078125 210.23828125 C155.61444519 209.76939987 155.15076538 209.30051849 154.67303467 208.81742859 C153.19382975 207.32048402 151.72147299 205.81704251 150.25 204.3125 C148.32120693 202.34678762 146.38914745 200.38437412 144.453125 198.42578125 C143.98060303 197.94766998 143.50808105 197.46955872 143.02124023 196.97695923 C139.79808093 193.73996029 136.45093572 190.71920178 132.97949219 187.75463867 C128.1052257 183.4340475 123.63319249 178.66743314 119.06640625 174.02734375 C115.48093941 170.40701013 111.90058108 166.84892946 108.03125 163.53125 C102.1631264 158.49390761 96.84516638 152.88827496 91.421875 147.3828125 C87.08610736 143.00714516 82.69875327 138.80953594 78.0234375 134.80078125 C73.14125184 130.45582451 68.64880498 125.68329623 64.06640625 121.02734375 C59.22119723 116.13501762 54.31474318 111.38394492 49 107 C48.33033203 106.44634766 47.66066406 105.89269531 46.97070312 105.32226562 C44.24744845 103.495067 42.2044326 103.71516155 39 104 C37.09112618 105.90887382 37.87319207 108.73793649 37.86446285 111.27863693 C37.86648992 112.19288059 37.86851698 113.10712425 37.87060547 114.04907227 C37.86801523 115.49748693 37.86801523 115.49748693 37.86537266 116.97516251 C37.86096162 120.25559351 37.86400597 123.53597438 37.8671875 126.81640625 C37.86612633 129.18128984 37.86473931 131.5461733 37.86305237 133.91105652 C37.86019976 140.42538791 37.86472137 146.93969856 37.87122726 153.45402527 C37.87523902 157.55036386 37.87708546 161.64670186 37.87869263 165.74304199 C37.89989895 213.69750867 38.10886679 261.65115247 38.39027476 309.60473913 C38.427463 315.95736017 38.46247583 322.3099909 38.49676514 328.66262817 C38.53900786 336.45138059 38.58529273 344.24009753 38.63667792 352.02879518 C38.66313995 356.04223561 38.6881291 360.05567011 38.70910835 364.0691433 C38.72852834 367.76147599 38.75260294 371.45374742 38.78049874 375.14602554 C38.79434184 377.13437113 38.8032901 379.1227489 38.81211662 381.11112309 C38.82190607 382.27785274 38.83169552 383.44458239 38.84178162 384.64666748 C38.84823417 385.66328838 38.85468672 386.67990929 38.8613348 387.72733688 C38.74602054 389.96693075 38.74602054 389.96693075 40 391 C41.71599236 391.07750934 43.43525176 391.08320598 45.15285778 391.06159496 C46.27686841 391.05001864 47.40087904 391.03844231 48.5589506 391.02651519 C50.43474511 390.99963597 50.43474511 390.99963597 52.34843445 390.97221375 C54.37316843 390.94965601 56.39790245 390.92710225 58.42263793 390.90467923 C60.63095429 390.87931721 62.83922907 390.85153281 65.04750824 390.82312393 C72.26327166 390.7306783 79.47921933 390.65456956 86.69515224 390.57672115 C89.29020091 390.54859113 91.88524286 390.51988618 94.48028505 390.49116457 C107.12046409 390.35286225 119.76068234 390.24757484 132.40132141 390.16181946 C133.31541187 390.1555892 134.22950233 390.14935894 135.17129251 390.14293989 C143.66588595 390.08539099 152.16049449 390.03036026 160.65512216 389.97810686 C166.48647918 389.94221836 172.31782789 389.90519139 178.14916992 389.86694336 C179.11777401 389.86060703 180.08637809 389.8542707 181.08433381 389.84774236 C196.73225423 389.74313372 212.37847253 389.56356683 228.025337 389.35677399 C244.10541082 389.14604943 260.18459565 389.02015491 276.26598006 388.97072345 C286.17435525 388.93756911 296.07756566 388.8392867 305.98430494 388.65519122 C312.79466275 388.53493119 319.60247704 388.49746825 326.41383483 388.52248289 C330.33490645 388.53449443 334.24715509 388.51247484 338.1665535 388.39093781 C351.71897765 387.99043701 363.89927262 387.85021233 374.37224579 397.44935936 C378.64326306 401.60515265 382.48574765 406.09832045 386.15417129 410.79280025 C387.98649426 413.19496983 387.98649426 413.19496983 391 415 C391 415.66 391 416.32 391 417 C391.86625 417.37125 391.86625 417.37125 392.75 417.75 C395.32939979 419.18299988 397.06121592 420.78424676 399 423 C399 423.66 399 424.32 399 425 C330.40624278 425.97024807 261.81096725 426.33788304 193.21108246 426.44470215 C190.06666549 426.44969317 186.9222487 426.45478422 183.77783203 426.45996094 C182.99781415 426.46123426 182.21779626 426.46250759 181.41414148 426.4638195 C168.57071695 426.48552609 155.72753496 426.53501749 142.88423452 426.59420508 C129.49519398 426.65537955 116.10628163 426.68999477 102.71710324 426.6992898 C94.5529456 426.7057215 86.38937916 426.73183592 78.22538826 426.78476876 C72.02449078 426.82270657 65.8240935 426.82328998 59.623106 426.81004715 C57.09716382 426.81037496 54.5711893 426.822585 52.04537392 426.84789658 C35.42826784 427.0056497 23.33645423 426.43825739 10.9375 414.3125 C3.5610068 406.0888056 1.24521975 395.78172069 1.1875 385.0546875 C1.16308838 383.87373505 1.13867676 382.69278259 1.11352539 381.4760437 C1.04199818 377.31701779 1.01559594 373.15951991 1 369 C0.99154195 367.37129717 0.98307821 365.74259437 0.97460938 364.1138916 C0.92369458 352.8287577 0.9460121 341.54408262 0.98168945 330.25894165 C1.01450474 319.78332838 1.02612448 309.30769121 1.03125 298.83203125 C1.03179886 297.79427992 1.03234772 296.75652859 1.03291321 295.68733025 C1.03809576 277.72391357 0.85186341 259.77244102 0.5 241.8125 C0.12025119 222.20876434 -0.04850267 202.62295597 0.01025391 183.01574707 C0.09407736 151.36467345 -0.27925866 119.71637287 -0.60882568 88.06742191 C-0.83520781 66.26483336 -1.05019186 44.46230794 -1.08811951 22.6584301 C-1.09184773 20.70933603 -1.09716617 18.76024429 -1.10414124 16.81115913 C-1.11291405 14.15394946 -1.1151536 11.49682182 -1.11523438 8.83959961 C-1.11880447 8.05255835 -1.12237457 7.26551708 -1.12605286 6.45462608 C-1.11465621 1.11465621 -1.11465621 1.11465621 0 0 Z " fill="#331F24" transform="translate(32,60)"/>
</svg>
